{"asset":{"version":"2.0","generator":"babylon.js glTF exporter for 3dsmax 2021 v20211112.3"},"extensionsUsed":["KHR_materials_pbrSpecularGlossiness"],"scene":0,"scenes":[{"nodes":[0]}],"nodes":[{"mesh":0,"translation":[-21.75084,8.389258,2.30737424],"name":"Rectangle001"}],"meshes":[{"primitives":[{"attributes":{"POSITION":1,"NORMAL":2,"TEXCOORD_0":3,"TEXCOORD_1":4},"indices":0,"material":0},{"attributes":{"POSITION":6,"NORMAL":7,"TEXCOORD_0":8,"TEXCOORD_1":9},"indices":5,"material":1},{"attributes":{"POSITION":11,"NORMAL":12,"TEXCOORD_0":13,"TEXCOORD_1":14},"indices":10,"material":2},{"attributes":{"POSITION":16,"NORMAL":17,"TEXCOORD_0":18,"TEXCOORD_1":19},"indices":15,"material":3},{"attributes":{"POSITION":21,"NORMAL":22,"TEXCOORD_0":23,"TEXCOORD_1":24},"indices":20,"material":4},{"attributes":{"POSITION":26,"NORMAL":27,"TEXCOORD_0":28,"TEXCOORD_1":29},"indices":25,"material":5},{"attributes":{"POSITION":31,"NORMAL":32,"TEXCOORD_0":33,"TEXCOORD_1":34},"indices":30,"material":6}],"name":"Rectangle001"}],"accessors":[{"bufferView":0,"componentType":5123,"count":6600,"type":"SCALAR","name":"accessorIndices"},{"bufferView":1,"componentType":5126,"count":2704,"max":[18.9998417,0.500032,20.041975],"min":[-18.9998417,-7.39791346,-20.0],"type":"VEC3","name":"accessorPositions"},{"bufferView":1,"byteOffset":32448,"componentType":5126,"count":2704,"type":"VEC3","name":"accessorNormals"},{"bufferView":2,"componentType":5126,"count":2704,"type":"VEC2","name":"accessorUVs"},{"bufferView":2,"byteOffset":21632,"componentType":5126,"count":2704,"type":"VEC2","name":"accessorUV2s"},{"bufferView":0,"byteOffset":13200,"componentType":5123,"count":36,"type":"SCALAR","name":"accessorIndices"},{"bufferView":1,"byteOffset":64896,"componentType":5126,"count":24,"max":[18.0,-7.39791441,20.0],"min":[-18.0,-8.389258,-20.0],"type":"VEC3","name":"accessorPositions"},{"bufferView":1,"byteOffset":65184,"componentType":5126,"count":24,"type":"VEC3","name":"accessorNormals"},{"bufferView":2,"byteOffset":43264,"componentType":5126,"count":24,"type":"VEC2","name":"accessorUVs"},{"bufferView":2,"byteOffset":43456,"componentType":5126,"count":24,"type":"VEC2","name":"accessorUV2s"},{"bufferView":0,"byteOffset":13272,"componentType":5123,"count":324,"type":"SCALAR","name":"accessorIndices"},{"bufferView":1,"byteOffset":65472,"componentType":5126,"count":120,"max":[2.15383053,-7.32718229,3.19025731],"min":[-4.44616938,-7.33718252,-3.40974259],"type":"VEC3","name":"accessorPositions"},{"bufferView":1,"byteOffset":66912,"componentType":5126,"count":120,"type":"VEC3","name":"accessorNormals"},{"bufferView":2,"byteOffset":43648,"componentType":5126,"count":120,"type":"VEC2","name":"accessorUVs"},{"bufferView":2,"byteOffset":44608,"componentType":5126,"count":120,"type":"VEC2","name":"accessorUV2s"},{"bufferView":0,"byteOffset":13920,"componentType":5123,"count":24,"type":"SCALAR","name":"accessorIndices"},{"bufferView":1,"byteOffset":68352,"componentType":5126,"count":9,"max":[2.67281461,-3.69791365,10.2721138],"min":[-2.92718458,-6.89791346,10.2721119],"type":"VEC3","name":"accessorPositions"},{"bufferView":1,"byteOffset":68460,"componentType":5126,"count":9,"type":"VEC3","name":"accessorNormals"},{"bufferView":2,"byteOffset":45568,"componentType":5126,"count":9,"type":"VEC2","name":"accessorUVs"},{"bufferView":2,"byteOffset":45640,"componentType":5126,"count":9,"type":"VEC2","name":"accessorUV2s"},{"bufferView":0,"byteOffset":13968,"componentType":5123,"count":24,"type":"SCALAR","name":"accessorIndices"},{"bufferView":1,"byteOffset":68568,"componentType":5126,"count":9,"max":[-4.705513,-3.69791365,10.2721224],"min":[-10.3055124,-6.89791346,10.27212],"type":"VEC3","name":"accessorPositions"},{"bufferView":1,"byteOffset":68676,"componentType":5126,"count":9,"type":"VEC3","name":"accessorNormals"},{"bufferView":2,"byteOffset":45712,"componentType":5126,"count":9,"type":"VEC2","name":"accessorUVs"},{"bufferView":2,"byteOffset":45784,"componentType":5126,"count":9,"type":"VEC2","name":"accessorUV2s"},{"bufferView":0,"byteOffset":14016,"componentType":5123,"count":6696,"type":"SCALAR","name":"accessorIndices"},{"bufferView":1,"byteOffset":68784,"componentType":5126,"count":1527,"max":[18.9998417,-7.28811264,20.041975],"min":[-18.9998417,-8.389258,-19.9577312],"type":"VEC3","name":"accessorPositions"},{"bufferView":1,"byteOffset":87108,"componentType":5126,"count":1527,"type":"VEC3","name":"accessorNormals"},{"bufferView":2,"byteOffset":45856,"componentType":5126,"count":1527,"type":"VEC2","name":"accessorUVs"},{"bufferView":2,"byteOffset":58072,"componentType":5126,"count":1527,"type":"VEC2","name":"accessorUV2s"},{"bufferView":0,"byteOffset":27408,"componentType":5123,"count":624,"type":"SCALAR","name":"accessorIndices"},{"bufferView":1,"byteOffset":105432,"componentType":5126,"count":224,"max":[3.27947021,-0.5299994,4.141417],"min":[-5.41210461,-0.5299994,-4.40970373],"type":"VEC3","name":"accessorPositions"},{"bufferView":1,"byteOffset":108120,"componentType":5126,"count":224,"type":"VEC3","name":"accessorNormals"},{"bufferView":2,"byteOffset":70288,"componentType":5126,"count":224,"type":"VEC2","name":"accessorUVs"},{"bufferView":2,"byteOffset":72080,"componentType":5126,"count":224,"type":"VEC2","name":"accessorUV2s"}],"bufferViews":[{"buffer":0,"byteLength":28656,"name":"bufferViewScalar"},{"buffer":0,"byteOffset":28656,"byteLength":110808,"byteStride":12,"name":"bufferViewFloatVec3"},{"buffer":0,"byteOffset":139464,"byteLength":73872,"byteStride":8,"name":"bufferViewFloatVec2"}],"buffers":[{"uri":"220112_01_export.bin","byteLength":213336}],"materials":[{"pbrMetallicRoughness":{"metallicFactor":0.0,"roughnessFactor":0.0},"doubleSided":true,"name":"Material #396","extras":{"babylonSeparateCullingPass":false}},{"pbrMetallicRoughness":{"baseColorTexture":{"index":0},"metallicFactor":0.2,"roughnessFactor":0.0},"doubleSided":true,"name":"Material #504","extras":{"babylonSeparateCullingPass":false}},{"pbrMetallicRoughness":{"baseColorTexture":{"index":1},"metallicFactor":0.0,"roughnessFactor":0.450053632},"name":"Material #473"},{"pbrMetallicRoughness":{"baseColorTexture":{"index":2},"metallicFactor":0.0,"roughnessFactor":0.0},"doubleSided":true,"name":"Material #452","extras":{"babylonSeparateCullingPass":false}},{"pbrMetallicRoughness":{"baseColorTexture":{"index":3},"metallicFactor":0.0,"roughnessFactor":0.0},"doubleSided":true,"name":"Material #501","extras":{"babylonSeparateCullingPass":false}},{"doubleSided":true,"name":"Material #454","extensions":{"KHR_materials_pbrSpecularGlossiness":{"specularFactor":[0.0,0.0,0.0],"glossinessFactor":0.0}},"extras":{"babylonSeparateCullingPass":false}},{"pbrMetallicRoughness":{"baseColorFactor":[0.9411765,0.670588255,0.490196079,1.0],"metallicFactor":0.0,"roughnessFactor":0.450053632},"emissiveFactor":[0.29958576,0.213454857,0.156034246],"name":"Material #518"}],"textures":[{"sampler":0,"source":0,"name":"concrete3.jpg"},{"sampler":0,"source":1,"name":"grass_01.jpg"},{"sampler":0,"source":2,"name":"210820_kinetica_final_01.mp4_000043943.png"},{"sampler":0,"source":3,"name":"210725_JY_01_01.mp4_000027093.png"}],"images":[{"uri":"concrete3.jpg"},{"uri":"grass_01.jpg"},{"uri":"210820_kinetica_final_01.mp4_000043943.png"},{"uri":"210725_JY_01_01.mp4_000027093.png"}],"samplers":[{"magFilter":9729,"minFilter":9987}]}