{"asset":{"version":"2.0","generator":"babylon.js glTF exporter for 3dsmax 2021 v20211112.3"},"extensionsUsed":["KHR_materials_pbrSpecularGlossiness"],"scene":0,"scenes":[{"nodes":[0]}],"nodes":[{"mesh":0,"translation":[-21.75084,8.389258,2.30737424],"name":"Rectangle001"}],"meshes":[{"primitives":[{"attributes":{"POSITION":1,"NORMAL":2,"TEXCOORD_0":3,"TEXCOORD_1":4},"indices":0,"material":0},{"attributes":{"POSITION":6,"NORMAL":7,"TEXCOORD_0":8,"TEXCOORD_1":9},"indices":5,"material":1},{"attributes":{"POSITION":11,"NORMAL":12,"TEXCOORD_0":13,"TEXCOORD_1":14},"indices":10,"material":2},{"attributes":{"POSITION":16,"NORMAL":17,"TEXCOORD_0":18,"TEXCOORD_1":19},"indices":15,"material":3},{"attributes":{"POSITION":21,"NORMAL":22,"TEXCOORD_0":23,"TEXCOORD_1":24},"indices":20,"material":4}],"name":"Rectangle001"}],"accessors":[{"bufferView":0,"componentType":5123,"count":5472,"type":"SCALAR","name":"accessorIndices"},{"bufferView":1,"componentType":5126,"count":2128,"max":[18.9998417,0.500032,20.041975],"min":[-18.9998417,-7.29791546,-20.0],"type":"VEC3","name":"accessorPositions"},{"bufferView":1,"byteOffset":25536,"componentType":5126,"count":2128,"type":"VEC3","name":"accessorNormals"},{"bufferView":2,"componentType":5126,"count":2128,"type":"VEC2","name":"accessorUVs"},{"bufferView":2,"byteOffset":17024,"componentType":5126,"count":2128,"type":"VEC2","name":"accessorUV2s"},{"bufferView":0,"byteOffset":10944,"componentType":5123,"count":36,"type":"SCALAR","name":"accessorIndices"},{"bufferView":1,"byteOffset":51072,"componentType":5126,"count":24,"max":[18.0,-7.39791441,20.0],"min":[-18.0,-8.389258,-20.0],"type":"VEC3","name":"accessorPositions"},{"bufferView":1,"byteOffset":51360,"componentType":5126,"count":24,"type":"VEC3","name":"accessorNormals"},{"bufferView":2,"byteOffset":34048,"componentType":5126,"count":24,"type":"VEC2","name":"accessorUVs"},{"bufferView":2,"byteOffset":34240,"componentType":5126,"count":24,"type":"VEC2","name":"accessorUV2s"},{"bufferView":0,"byteOffset":11016,"componentType":5123,"count":324,"type":"SCALAR","name":"accessorIndices"},{"bufferView":1,"byteOffset":51648,"componentType":5126,"count":120,"max":[2.15383053,-7.32718229,3.19025731],"min":[-4.44616938,-7.33718252,-3.40974259],"type":"VEC3","name":"accessorPositions"},{"bufferView":1,"byteOffset":53088,"componentType":5126,"count":120,"type":"VEC3","name":"accessorNormals"},{"bufferView":2,"byteOffset":34432,"componentType":5126,"count":120,"type":"VEC2","name":"accessorUVs"},{"bufferView":2,"byteOffset":35392,"componentType":5126,"count":120,"type":"VEC2","name":"accessorUV2s"},{"bufferView":0,"byteOffset":11664,"componentType":5123,"count":6696,"type":"SCALAR","name":"accessorIndices"},{"bufferView":1,"byteOffset":54528,"componentType":5126,"count":1527,"max":[18.9998417,-7.28811264,20.041975],"min":[-18.9998417,-8.389258,-19.9577312],"type":"VEC3","name":"accessorPositions"},{"bufferView":1,"byteOffset":72852,"componentType":5126,"count":1527,"type":"VEC3","name":"accessorNormals"},{"bufferView":2,"byteOffset":36352,"componentType":5126,"count":1527,"type":"VEC2","name":"accessorUVs"},{"bufferView":2,"byteOffset":48568,"componentType":5126,"count":1527,"type":"VEC2","name":"accessorUV2s"},{"bufferView":0,"byteOffset":25056,"componentType":5123,"count":624,"type":"SCALAR","name":"accessorIndices"},{"bufferView":1,"byteOffset":91176,"componentType":5126,"count":224,"max":[3.27947021,-0.5299994,4.141417],"min":[-5.41210461,-0.5299994,-4.40970373],"type":"VEC3","name":"accessorPositions"},{"bufferView":1,"byteOffset":93864,"componentType":5126,"count":224,"type":"VEC3","name":"accessorNormals"},{"bufferView":2,"byteOffset":60784,"componentType":5126,"count":224,"type":"VEC2","name":"accessorUVs"},{"bufferView":2,"byteOffset":62576,"componentType":5126,"count":224,"type":"VEC2","name":"accessorUV2s"}],"bufferViews":[{"buffer":0,"byteLength":26304,"name":"bufferViewScalar"},{"buffer":0,"byteOffset":26304,"byteLength":96552,"byteStride":12,"name":"bufferViewFloatVec3"},{"buffer":0,"byteOffset":122856,"byteLength":64368,"byteStride":8,"name":"bufferViewFloatVec2"}],"buffers":[{"uri":"220118_가운데벽제거_02.bin","byteLength":187224}],"materials":[{"pbrMetallicRoughness":{"metallicFactor":0.0,"roughnessFactor":0.0},"doubleSided":true,"name":"Material #396","extras":{"babylonSeparateCullingPass":false}},{"pbrMetallicRoughness":{"baseColorTexture":{"index":0},"metallicFactor":0.2,"roughnessFactor":0.0},"doubleSided":true,"name":"Material #504","extras":{"babylonSeparateCullingPass":false}},{"pbrMetallicRoughness":{"baseColorTexture":{"index":1},"metallicFactor":0.0,"roughnessFactor":0.450053632},"name":"Material #473"},{"doubleSided":true,"name":"Material #454","extensions":{"KHR_materials_pbrSpecularGlossiness":{"specularFactor":[0.0,0.0,0.0],"glossinessFactor":0.0}},"extras":{"babylonSeparateCullingPass":false}},{"pbrMetallicRoughness":{"baseColorFactor":[0.9411765,0.670588255,0.490196079,1.0],"metallicFactor":0.0,"roughnessFactor":0.450053632},"emissiveFactor":[0.29958576,0.213454857,0.156034246],"name":"Material #518"}],"textures":[{"sampler":0,"source":0,"name":"concrete3.jpg"},{"sampler":0,"source":1,"name":"grass_01.jpg"}],"images":[{"uri":"concrete3.jpg"},{"uri":"grass_01.jpg"}],"samplers":[{"magFilter":9729,"minFilter":9987}]}